<?xml version="1.0" encoding="UTF-8" standalone="no"?>
<svg
   xmlns:dc="http://purl.org/dc/elements/1.1/"
   xmlns:cc="http://creativecommons.org/ns#"
   xmlns:rdf="http://www.w3.org/1999/02/22-rdf-syntax-ns#"
   xmlns:svg="http://www.w3.org/2000/svg"
   xmlns="http://www.w3.org/2000/svg"
   xml:space="preserve"
   width="64px"
   viewBox="0 0 64 64"
   version="1.1"
   id="Layer_1"
   height="64px"
   enable-background="new 0 0 64 64"><metadata
     id="metadata15"><rdf:RDF><cc:Work
         rdf:about=""><dc:format>image/svg+xml</dc:format><dc:type
           rdf:resource="http://purl.org/dc/dcmitype/StillImage" /><dc:title></dc:title></cc:Work></rdf:RDF></metadata><defs
     id="defs13" /><g
     transform="matrix(1.3124726,0,0,1.3124726,-9.5204407,-9.6941942)"
     style="fill:#9c0000;fill-opacity:1"
     id="g3"><path
       style="fill:#9c0000;fill-opacity:1"
       id="path5"
       d="m 28.641,12.411 6.834,0 c 0.659,0 1.199,-0.54 1.199,-1.199 l 0,-1.879 c 0,-0.659 -0.54,-1.199 -1.199,-1.199 l -6.834,0 c -0.659,0 -1.199,0.54 -1.199,1.199 l 0,1.879 c -0.001,0.659 0.539,1.199 1.199,1.199 z" /><path
       style="fill:#9c0000;fill-opacity:1"
       id="path7"
       d="m 32,13.971 c -5.797,0 -11.049,2.369 -14.846,6.188 l 4.554,3.288 c 2.745,-2.479 6.368,-4.003 10.35,-4.003 8.533,0 15.475,6.942 15.475,15.475 0,8.533 -6.941,15.475 -15.475,15.475 -8.534,0 -15.475,-6.941 -15.475,-15.475 0,-3.775 1.362,-7.235 3.617,-9.924 l -3.42,-4.423 c -3.539,3.753 -5.726,8.794 -5.726,14.347 0,11.551 9.396,20.948 20.946,20.948 11.55,0 20.946,-9.397 20.946,-20.948 C 52.946,23.368 43.55,13.971 32,13.971 Z" /><path
       style="fill:#9c0000;fill-opacity:1"
       id="path9"
       d="m 32.158,38.364 c -1.06,0 -1.994,-0.508 -2.602,-1.283 L 29.55,37.089 21.981,27.3 c -1.609,2.122 -2.575,4.756 -2.575,7.618 0,6.976 5.675,12.65 12.651,12.65 6.976,0 12.65,-5.675 12.65,-12.65 0,-6.975 -5.675,-12.651 -12.65,-12.651 -3.037,0 -5.827,1.077 -8.01,2.868 l 9.818,7.088 -0.006,0.008 c 0.961,0.578 1.609,1.621 1.609,2.824 10e-4,1.827 -1.48,3.309 -3.31,3.309 z" /></g></svg>